<?xml version="1.0" encoding="utf-8"?>
<!-- Uploaded to: SVG Repo, www.svgrepo.com, Generator: SVG Repo Mixer Tools -->
<svg width="800px" height="800px" viewBox="0 0 1024 1024" class="icon"  version="1.1" xmlns="http://www.w3.org/2000/svg"><path d="M960 224v608c0 35.3-28.7 64-64 64H128c-35.3 0-64-28.7-64-64V224c0-17.7 14.3-32 32-32h832c17.7 0 32 14.3 32 32z" fill="#3D5AFE" /><path d="M832 480.2c0 17.7-14.3 32-32 32H224c-17.7 0-32-14.3-32-32s14.3-32 32-32h576c17.7 0 32 14.4 32 32zM832 672.2c0 17.7-14.3 32-32 32H224c-17.7 0-32-14.3-32-32s14.3-32 32-32h576c17.7 0 32 14.4 32 32z" fill="#FFEA00" /><path d="M224 319.8c-17.7 0-32-14.3-32-32V160c0-17.7 14.3-32 32-32s32 14.3 32 32v127.8c0 17.7-14.3 32-32 32zM800 319.8c-17.7 0-32-14.3-32-32V160c0-17.7 14.3-32 32-32s32 14.3 32 32v127.8c0 17.7-14.3 32-32 32z" fill="#536DFE" /><path d="M660.8 704.3H224c-17.7 0-32-14.3-32-32s14.3-32 32-32h461.4c12.1-40.6 18.6-83.5 18.6-128H224c-17.7 0-32-14.3-32-32s14.3-32 32-32h475.5c-14.2-99.8-61.3-189-130-256.3H256v95.8c0 17.7-14.3 32-32 32s-32-14.3-32-32V192H96c-17.7 0-32 14.3-32 32v608c0 35.3 28.7 64 64 64h358.9c75.1-45.2 135.9-112 173.9-191.7z" fill="#536DFE" /><path d="M192 480.3c0 17.7 14.3 32 32 32h480v-0.2c0-21.6-1.5-42.9-4.5-63.8H224c-17.7 0-32 14.3-32 32zM192 672.3c0 17.7 14.3 32 32 32h436.8c9.8-20.5 18-41.9 24.6-64H224c-17.7 0-32 14.3-32 32z" fill="#FFFF00" /><path d="M192 287.8c0 17.7 14.3 32 32 32s32-14.3 32-32V192h-64v95.8z" fill="#8C9EFF" /></svg>